# xmcd
#
# Track frame offsets:
#	150
#	11666
#	26031
#	37182
#	49599
#	61069
#	71710
#	81633
#	90286
#	106846
#	115051
#	128258
#	140635
#	175506
#	183511
#	197166
#	209525
#	222952
#	232674
#	244664
#	254620
#	264023
#	277317
#	287432
#	299129
#
# Disc length: 4126 seconds
#
# Revision: 1
# Processed by: cddbd v1.5.2PL0 Copyright (c) Steve Scherf et al.
# Submitted via: audiograbber 1.83.01
#
DISCID=72101c19
DTITLE=Various Artist - Seaside Special 1 CD1
DYEAR=2013
DGENRE=Oldies
TTITLE0=Morecambe and Wise - Me And My Shadow
TTITLE1=Cliff Richard - The Young Ones
TTITLE2=Harry Secombe - Count Your Blessings
TTITLE3=Frankie Howerd - Song And Dance Man
TTITLE4=Tommy Cooper - Don't Jump Off The Roof Dad
TTITLE5=The Shadows - Dance On
TTITLE6=Ken Dodd - Love Is Like A Violin
TTITLE7=Helen Shapiro - Let's Talk About Love
TTITLE8=Charlie Drake - My Boomerang Won't Come Back
TTITLE9=Beverley Sisters - I Dreamed
TTITLE10=Acker Bilk - Stranger On The Shore
TTITLE11=Bernard Bresslaw - You Need Feet
TTITLE12=Barbara Windsor - Where Do Little Birds Go?
TTITLE13=Adam Faith - Poor Me
TTITLE14=Tommy Steele and Jimmy Edwards - You And Me
TTITLE15=Matt Monro - Portrait Of My Love
TTITLE16=Kenny Ball and His Jazzmen - Midnight In Moscow
TTITLE17=Russ Conway - Roulette
TTITLE18=Roy Castle - Little White Berry
TTITLE19=Tessie O'Shea - A Full Time Job
TTITLE20=Frank Ifield - I Remember You
TTITLE21=Shirley Bassey - Reach For The Stars
TTITLE22=Michael Holliday - The Story Of My Life
TTITLE23=Norman Wisdom - London Melody
TTITLE24=Frankie Vaughan - Kisses Sweeter Than Wine
EXTD=All tracks Mono
EXTT0=
EXTT1=
EXTT2=
EXTT3=
EXTT4=
EXTT5=
EXTT6=
EXTT7=
EXTT8=
EXTT9=
EXTT10=
EXTT11=
EXTT12=
EXTT13=
EXTT14=
EXTT15=
EXTT16=
EXTT17=
EXTT18=
EXTT19=
EXTT20=
EXTT21=
EXTT22=
EXTT23=
EXTT24=
PLAYORDER=
